<svg width="34" height="34" viewBox="0 0 34 34" fill="none" xmlns="http://www.w3.org/2000/svg">
<rect width="34" height="34" rx="8" fill="#62AD76" fill-opacity="0.1"/>
<g clip-path="url(#clip0_2025_1684)">
<path d="M11.1667 17C11.1667 14.8003 11.1667 13.7001 11.8504 13.017C12.534 12.334 13.6336 12.3334 15.8334 12.3334H18.1667C20.3664 12.3334 21.4666 12.3334 22.1497 13.017C22.8328 13.7007 22.8334 14.8003 22.8334 17V18.1667C22.8334 20.3665 22.8334 21.4666 22.1497 22.1497C21.466 22.8328 20.3664 22.8334 18.1667 22.8334H15.8334C13.6336 22.8334 12.5334 22.8334 11.8504 22.1497C11.1673 21.466 11.1667 20.3665 11.1667 18.1667V17Z" stroke="#62AD76" stroke-width="1.1"/>
<path d="M14.0834 12.3334V11.4584M19.9167 12.3334V11.4584M11.4584 15.25H22.5417" stroke="#62AD76" stroke-width="1.1" stroke-linecap="round"/>
<path d="M20.5 19.9167C20.5 20.0714 20.4385 20.2197 20.3291 20.3291C20.2197 20.4385 20.0714 20.5 19.9167 20.5C19.762 20.5 19.6136 20.4385 19.5042 20.3291C19.3948 20.2197 19.3333 20.0714 19.3333 19.9167C19.3333 19.762 19.3948 19.6136 19.5042 19.5042C19.6136 19.3948 19.762 19.3333 19.9167 19.3333C20.0714 19.3333 20.2197 19.3948 20.3291 19.5042C20.4385 19.6136 20.5 19.762 20.5 19.9167ZM20.5 17.5833C20.5 17.738 20.4385 17.8864 20.3291 17.9958C20.2197 18.1052 20.0714 18.1667 19.9167 18.1667C19.762 18.1667 19.6136 18.1052 19.5042 17.9958C19.3948 17.8864 19.3333 17.738 19.3333 17.5833C19.3333 17.4286 19.3948 17.2803 19.5042 17.1709C19.6136 17.0615 19.762 17 19.9167 17C20.0714 17 20.2197 17.0615 20.3291 17.1709C20.4385 17.2803 20.5 17.4286 20.5 17.5833ZM17.5833 19.9167C17.5833 20.0714 17.5219 20.2197 17.4125 20.3291C17.3031 20.4385 17.1547 20.5 17 20.5C16.8453 20.5 16.6969 20.4385 16.5875 20.3291C16.4781 20.2197 16.4167 20.0714 16.4167 19.9167C16.4167 19.762 16.4781 19.6136 16.5875 19.5042C16.6969 19.3948 16.8453 19.3333 17 19.3333C17.1547 19.3333 17.3031 19.3948 17.4125 19.5042C17.5219 19.6136 17.5833 19.762 17.5833 19.9167ZM17.5833 17.5833C17.5833 17.738 17.5219 17.8864 17.4125 17.9958C17.3031 18.1052 17.1547 18.1667 17 18.1667C16.8453 18.1667 16.6969 18.1052 16.5875 17.9958C16.4781 17.8864 16.4167 17.738 16.4167 17.5833C16.4167 17.4286 16.4781 17.2803 16.5875 17.1709C16.6969 17.0615 16.8453 17 17 17C17.1547 17 17.3031 17.0615 17.4125 17.1709C17.5219 17.2803 17.5833 17.4286 17.5833 17.5833ZM14.6667 19.9167C14.6667 20.0714 14.6052 20.2197 14.4958 20.3291C14.3864 20.4385 14.238 20.5 14.0833 20.5C13.9286 20.5 13.7803 20.4385 13.6709 20.3291C13.5615 20.2197 13.5 20.0714 13.5 19.9167C13.5 19.762 13.5615 19.6136 13.6709 19.5042C13.7803 19.3948 13.9286 19.3333 14.0833 19.3333C14.238 19.3333 14.3864 19.3948 14.4958 19.5042C14.6052 19.6136 14.6667 19.762 14.6667 19.9167ZM14.6667 17.5833C14.6667 17.738 14.6052 17.8864 14.4958 17.9958C14.3864 18.1052 14.238 18.1667 14.0833 18.1667C13.9286 18.1667 13.7803 18.1052 13.6709 17.9958C13.5615 17.8864 13.5 17.738 13.5 17.5833C13.5 17.4286 13.5615 17.2803 13.6709 17.1709C13.7803 17.0615 13.9286 17 14.0833 17C14.238 17 14.3864 17.0615 14.4958 17.1709C14.6052 17.2803 14.6667 17.4286 14.6667 17.5833Z" fill="#62AD76"/>
</g>
<defs>
<clipPath id="clip0_2025_1684">
<rect width="14" height="14" fill="white" transform="translate(10 10)"/>
</clipPath>
</defs>
</svg>
