<svg width="40" height="40" viewBox="0 0 40 40" fill="none" xmlns="http://www.w3.org/2000/svg">
<rect x="0.5" y="0.5" width="39" height="39" rx="19.5" fill="#F9F9F9"/>
<rect x="0.5" y="0.5" width="39" height="39" rx="19.5" stroke="#E9E9E9"/>
<path d="M15.4387 19.6607C15.39 20.5914 15.446 21.582 14.6147 22.2054C14.4235 22.3484 14.2684 22.5341 14.1617 22.7476C14.055 22.9611 13.9996 23.1966 14 23.4354C14 24.1 14.5213 24.6667 15.2 24.6667H24.8C25.4787 24.6667 26 24.1 26 23.4354C26 22.9514 25.772 22.4954 25.3853 22.2054C24.554 21.582 24.61 20.5914 24.5613 19.6607C24.5013 18.4914 23.9946 17.3898 23.1458 16.5834C22.2969 15.777 21.1708 15.3274 20 15.3274C18.8292 15.3274 17.7031 15.777 16.8542 16.5834C16.0054 17.3898 15.4987 18.4914 15.4387 19.6607Z" stroke="#7E8389" stroke-linecap="round" stroke-linejoin="round"/>
<path d="M22 24.6667C22 25.1971 21.7893 25.7058 21.4142 26.0809C21.0391 26.456 20.5304 26.6667 20 26.6667C19.4696 26.6667 18.9609 26.456 18.5858 26.0809C18.2107 25.7058 18 25.1971 18 24.6667M19 14.0834C19 14.6354 19.448 15.3334 20 15.3334C20.552 15.3334 21 14.6354 21 14.0834C21 13.5314 20.552 13.3334 20 13.3334C19.448 13.3334 19 13.5314 19 14.0834Z" stroke="#7E8389" stroke-linecap="round" stroke-linejoin="round"/>
</svg>
