<svg width="60" height="24" viewBox="0 0 60 24" fill="none" xmlns="http://www.w3.org/2000/svg">
<path d="M18.5742 0.212769H25.4329V3.7233H18.5742V0.212769ZM18.7119 4.72658H25.2952V18.7706H18.7119V4.72658Z" fill="url(#paint0_linear_797_3820)"/>
<path d="M27.0791 0.212769H33.6624V18.7706H27.0791V0.212769Z" fill="url(#paint1_linear_797_3820)"/>
<path d="M40.7963 0.212769H44.6377V3.7233H41.8939V4.72658H44.089V9.24039H41.8939V18.7706H35.3105V5.22918C35.3105 2.21933 37.5056 0.212769 40.7983 0.212769H40.7963Z" fill="url(#paint2_linear_797_3820)"/>
<path d="M45.7353 4.72668H52.3186V14.2569H53.4162V4.72668H59.9995V18.7707C59.9995 21.7806 57.8044 23.7871 54.5118 23.7871H46.5013V19.774H53.4143V18.7707H51.2192C47.9265 18.7707 45.7314 16.7642 45.7314 13.7543V4.72668H45.7353Z" fill="url(#paint3_linear_797_3820)"/>
<path d="M16.9297 10.3976C16.9297 15.1136 13.0184 18.9245 8.24432 18.8032C3.79209 18.6896 0.152353 15.1078 0.00498005 10.6864C-0.154028 6.02432 3.51479 2.17872 8.12797 1.99963C7.55593 2.33855 8.26371 3.56907 8.28504 4.0736C8.44211 7.42622 3.31894 8.72028 5.13396 12.5678C6.47196 15.4082 10.7594 15.3004 11.8957 12.3695C13.4179 8.44876 8.38199 7.44548 8.69419 3.90799C8.74267 3.34569 9.30502 2.58504 8.91331 2.13058C8.87453 2.08244 8.81054 2.0343 8.73685 1.99963C13.2841 2.14021 16.9297 5.8433 16.9297 10.3976Z" fill="url(#paint4_linear_797_3820)"/>
<defs>
<linearGradient id="paint0_linear_797_3820" x1="18.4159" y1="18.4894" x2="28.89" y2="18.293" gradientUnits="userSpaceOnUse">
<stop stop-color="#084734"/>
<stop offset="1" stop-color="#13AD7F"/>
</linearGradient>
<linearGradient id="paint1_linear_797_3820" x1="26.9272" y1="18.4894" x2="36.981" y2="18.3085" gradientUnits="userSpaceOnUse">
<stop stop-color="#084734"/>
<stop offset="1" stop-color="#13AD7F"/>
</linearGradient>
<linearGradient id="paint2_linear_797_3820" x1="35.0953" y1="18.4894" x2="49.3348" y2="18.1263" gradientUnits="userSpaceOnUse">
<stop stop-color="#084734"/>
<stop offset="1" stop-color="#13AD7F"/>
</linearGradient>
<linearGradient id="paint3_linear_797_3820" x1="45.4022" y1="23.4983" x2="67.1676" y2="22.6716" gradientUnits="userSpaceOnUse">
<stop stop-color="#084734"/>
<stop offset="1" stop-color="#13AD7F"/>
</linearGradient>
<linearGradient id="paint4_linear_797_3820" x1="-0.390684" y1="18.5514" x2="25.4047" y2="17.2329" gradientUnits="userSpaceOnUse">
<stop stop-color="#084734"/>
<stop offset="1" stop-color="#13AD7F"/>
</linearGradient>
</defs>
</svg>
