<svg width="212" height="85" viewBox="0 0 212 85" fill="none" xmlns="http://www.w3.org/2000/svg">
<path d="M65.6279 0.852173H89.8619V13.256H65.6279V0.852173ZM66.1144 16.8009H89.3754V66.4231H66.1144V16.8009Z" fill="white"/>
<path d="M95.6787 0.852173H118.94V66.4231H95.6787V0.852173Z" fill="white"/>
<path d="M144.146 0.852173H157.719V13.256H148.024V16.8009H155.78V32.7497H148.024V66.4231H124.763V18.5768C124.763 7.94203 132.519 0.852173 144.153 0.852173H144.146Z" fill="white"/>
<path d="M161.6 16.801H184.861V50.4744H188.739V16.801H212V66.4232C212 77.058 204.244 84.1479 192.61 84.1479H164.306V69.9681H188.732V66.4232H180.976C169.342 66.4232 161.586 59.3334 161.586 48.6986V16.801H161.6Z" fill="white"/>
<path d="M59.818 36.8379C59.818 53.5011 45.9984 66.9664 29.1299 66.5377C13.3987 66.1363 0.538315 53.4807 0.0175961 37.8585C-0.544232 21.3858 12.4189 7.79806 28.7188 7.16528C26.6976 8.3628 29.1984 12.7106 29.2738 14.4933C29.8287 26.3392 11.7269 30.9115 18.14 44.5061C22.8676 54.5421 38.0164 54.1611 42.0314 43.8053C47.4099 29.9522 29.6163 26.4072 30.7194 13.9081C30.8907 11.9213 32.8777 9.23372 31.4937 7.62796C31.3566 7.45786 31.1305 7.28776 30.8702 7.16528C46.9371 7.66198 59.818 20.7462 59.818 36.8379Z" fill="white"/>
</svg>
