<svg width="34" height="34" viewBox="0 0 34 34" fill="none" xmlns="http://www.w3.org/2000/svg">
<rect width="34" height="34" rx="8" fill="#E9E9E9"/>
<path d="M17 13.5C19.5773 13.5 21.6666 12.9776 21.6666 12.3333C21.6666 11.689 19.5773 11.1666 17 11.1666C14.4227 11.1666 12.3333 11.689 12.3333 12.3333C12.3333 12.9776 14.4227 13.5 17 13.5Z" stroke="#7E8389" stroke-width="1.1" stroke-linecap="round" stroke-linejoin="round"/>
<path d="M17 17.2916C17.2321 17.2916 17.4546 17.1994 17.6187 17.0353C17.7828 16.8712 17.875 16.6486 17.875 16.4166C17.875 15.8333 17 14.9583 17 14.9583C17 14.9583 16.125 15.8333 16.125 16.4166C16.125 16.6486 16.2172 16.8712 16.3813 17.0353C16.5454 17.1994 16.7679 17.2916 17 17.2916Z" stroke="#7E8389" stroke-width="1.1" stroke-linecap="round" stroke-linejoin="round"/>
<path d="M21.0833 12.9166V16.1524C21.4549 16.4032 21.6666 16.6925 21.6666 17C21.6666 17.9665 19.5771 18.75 17 18.75C14.4228 18.75 12.3333 17.9665 12.3333 17C12.3333 16.6925 12.5451 16.4032 12.9166 16.1524V12.9166" stroke="#7E8389" stroke-width="1.1" stroke-linecap="round" stroke-linejoin="round"/>
<path d="M21.0833 17.875V20.2358C21.4549 20.4866 21.6666 20.7759 21.6666 21.0833C21.6666 22.0499 19.5771 22.8333 17 22.8333C14.4228 22.8333 12.3333 22.0499 12.3333 21.0833C12.3333 20.7759 12.5451 20.4866 12.9166 20.2358V17.875" stroke="#7E8389" stroke-width="1.1" stroke-linecap="round" stroke-linejoin="round"/>
</svg>
