<svg width="24" height="24" viewBox="0 0 24 24" fill="none" xmlns="http://www.w3.org/2000/svg">
<path d="M9.74899 2.494L18.159 7.32M18.159 7.32L15.902 11.216M18.159 7.32L19 7.804M12.55 17.001L11.055 19.581C10.4091 20.6931 9.3487 21.5038 8.10618 21.8356C6.86365 22.1673 5.54029 21.9931 4.42599 21.351C3.87477 21.0348 3.39141 20.6129 3.00364 20.1095C2.61586 19.606 2.33131 19.031 2.1663 18.4173C2.0013 17.8037 1.95908 17.1635 2.04209 16.5334C2.12509 15.9034 2.33167 15.296 2.64999 14.746L9.74999 2.494L8.91299 2M12.55 17.001L14.189 14.174L15.902 11.216M12.55 17.001L9.93699 15.497M15.902 11.216L13.344 9.745M14.188 14.174L9.98499 11.756" stroke="#FF0000" stroke-width="1.5" stroke-linecap="round"/>
<path d="M22 14.917C22 16.067 21.105 17 20 17C18.895 17 18 16.067 18 14.917C18 14.197 18.783 13.236 19.37 12.617C19.4505 12.5304 19.548 12.4613 19.6564 12.414C19.7648 12.3668 19.8818 12.3424 20 12.3424C20.1182 12.3424 20.2352 12.3668 20.3436 12.414C20.452 12.4613 20.5495 12.5304 20.63 12.617C21.217 13.236 22 14.197 22 14.917Z" stroke="#FF0000" stroke-width="1.5"/>
</svg>
